# xmcd
#
# Track frame offsets:
#	150
#	12430
#	25070
#	36920
#	51077
#	69057
#	82641
#	97142
#	113344
#	125039
#	147269
#	163912
#	177975
#
# Disc length: 2502 seconds
# Revision: 1
# Processed by: cddbd v1.5.2PL0 Copyright (c) Steve Scherf et al.
# Submitted via: dBpowerAMP V12.0
#
DISCID=a309c40d
DTITLE=Art Stevenson and High Water - Lonely Days
DYEAR=2000
DGENRE=Country
TTITLE0=Unwanted Love
TTITLE1=Lonely Days
TTITLE2=This Morning at Nine
TTITLE3=Little Red Wagon
TTITLE4=Oh My Stars
TTITLE5=Sail Away Ladies
TTITLE6=Down at the Cross
TTITLE7=Wall Around Your Heart
TTITLE8=Another Day
TTITLE9=If I Were the Wind
TTITLE10=Texas Crapshooter
TTITLE11=First Whippoorwill
TTITLE12=Lord I Fell in Love With Thee
EXTD=
EXTT0=
EXTT1=
EXTT2=
EXTT3=
EXTT4=
EXTT5=
EXTT6=
EXTT7=
EXTT8=
EXTT9=
EXTT10=
EXTT11=
EXTT12=
PLAYORDER=
